<svg width="30" height="30" viewBox="0 0 30 30" fill="none" xmlns="http://www.w3.org/2000/svg">
<path d="M25.5251 5.72507C24.898 5.09579 24.1529 4.59649 23.3324 4.2558C22.5119 3.91512 21.6323 3.73975 20.7439 3.73975C19.8555 3.73975 18.9758 3.91512 18.1553 4.2558C17.3349 4.59649 16.5897 5.09579 15.9626 5.72507L15.0001 6.70007L14.0376 5.72507C13.4105 5.09579 12.6654 4.59649 11.8449 4.2558C11.0244 3.91512 10.1448 3.73975 9.25636 3.73975C8.36796 3.73975 7.48831 3.91512 6.66783 4.2558C5.84736 4.59649 5.10221 5.09579 4.47511 5.72507C1.82511 8.37507 1.66261 12.8501 5.00011 16.2501L15.0001 26.2501L25.0001 16.2501C28.3376 12.8501 28.1751 8.37507 25.5251 5.72507Z" stroke="white" stroke-width="2" stroke-linecap="round" stroke-linejoin="round"/>
</svg>
